<svg xmlns="http://www.w3.org/2000/svg" version="1.1" xmlns:xlink="http://www.w3.org/1999/xlink" xmlns:svgjs="http://svgjs.com/svgjs" width="1440" height="560" preserveAspectRatio="none" viewBox="0 0 1440 560"><g mask="url(&quot;#SvgjsMask1083&quot;)" fill="none"><rect width="1440" height="560" x="0" y="0" fill="rgba(173, 255, 47, 1)"></rect><path d="M0,560.947C107.421,564.046,214.754,532.794,302.873,471.28C389.161,411.045,427.275,309.321,485.771,221.844C556.963,115.383,684.809,29.757,683.764,-98.31C682.716,-226.728,586.247,-343.452,480.563,-416.411C383.637,-483.324,254.234,-448.742,139.244,-474.222C34.557,-497.419,-58.525,-577.334,-164.221,-559.285C-273.62,-540.604,-373.84,-469.383,-434.261,-376.289C-491.806,-287.625,-465.055,-173.631,-482.216,-69.332C-499.836,37.756,-573.581,143.014,-536.489,245.007C-499.066,347.91,-386.2,398.56,-291.848,454.124C-200.737,507.78,-105.692,557.898,0,560.947" fill="#7bca00"></path><path d="M1440 1250.826C1568.821 1250.839 1613.655 1068.436 1720.564 996.566 1824.109 926.9580000000001 1974.495 937.29 2051.926 839.457 2134.819 734.722 2197.455 581.883 2146.4809999999998 458.423 2094.143 331.65999999999997 1911.569 330.297 1805.705 243.11399999999998 1724.267 176.04700000000003 1698.311 51.81 1601.588 9.682999999999993 1501.169-34.053999999999974 1384.374-18.187999999999988 1279.683 14.009999999999991 1175.847 45.94500000000005 1077.077 102.36099999999999 1013.597 190.51999999999998 952.62 275.203 955.377 384.91700000000003 938.46 487.889 921.163 593.176 870.862 702.639 913.385 800.4970000000001 956.044 898.6669999999999 1078.124 926.942 1159.474 996.5070000000001 1257.382 1080.232 1311.175 1250.813 1440 1250.826" fill="#d4ff93"></path></g><defs><mask id="SvgjsMask1083"><rect width="1440" height="560" fill="#ffffff"></rect></mask></defs></svg>